<?xml version="1.0" standalone="no"?>
<!DOCTYPE svg PUBLIC "-//W3C//DTD SVG 20010904//EN"
 "http://www.w3.org/TR/2001/REC-SVG-20010904/DTD/svg10.dtd">
<svg version="1.0" xmlns="http://www.w3.org/2000/svg"
 width="636.000000pt" height="200.000000pt" viewBox="0 0 636.000000 200.000000"
 preserveAspectRatio="xMidYMid meet">

<g transform="translate(0.000000,200.000000) scale(0.100000,-0.100000)"
fill="#000000" stroke="none">
<path d="M1660 1970 c-8 -5 -23 -7 -32 -4 -15 4 -58 -30 -58 -47 0 -4 -9 -11
-20 -14 -14 -5 -20 -15 -20 -37 0 -17 -8 -40 -17 -50 -14 -15 -15 -23 -6 -38
14 -21 0 -30 -48 -30 l-29 0 0 76 c0 41 -5 84 -10 95 -14 25 -75 25 -200 0
-52 -11 -140 -27 -195 -36 -55 -9 -145 -25 -200 -35 -55 -10 -145 -26 -200
-35 -224 -37 -285 -47 -384 -67 -56 -12 -109 -28 -117 -35 -12 -12 -14 -116
-14 -629 0 -602 0 -614 20 -634 17 -17 219 -93 345 -130 17 -5 62 -21 100 -35
39 -15 84 -30 100 -34 17 -5 46 -15 65 -23 42 -18 94 -37 135 -48 35 -10 81
-26 145 -50 122 -46 135 -49 213 -33 39 7 117 22 172 33 55 10 129 24 165 31
36 6 79 14 95 16 17 2 64 10 105 18 41 8 122 23 180 34 58 11 132 25 165 31
33 6 89 15 125 20 82 12 161 35 171 52 13 20 11 66 -3 75 -14 8 -59 25 -228
82 -63 22 -173 60 -245 86 -71 25 -161 57 -200 70 -127 43 -250 86 -277 97
l-28 10 0 130 c0 100 3 129 13 125 42 -16 183 -56 248 -71 22 -5 27 -13 33
-52 3 -26 6 -65 6 -86 0 -76 45 -117 110 -103 48 11 62 64 51 191 -5 59 -14
111 -20 117 -20 20 -11 24 24 13 35 -11 35 -11 35 -71 0 -74 13 -121 42 -152
29 -31 70 -30 103 2 24 25 25 32 25 132 0 93 -3 112 -25 157 -16 32 -43 64
-72 86 -26 19 -60 47 -75 62 -26 26 -27 30 -14 50 7 13 20 53 27 90 10 54 10
78 0 125 -14 61 -51 136 -81 165 -14 14 -17 27 -13 55 3 21 10 42 14 48 12 12
11 52 -1 60 -5 3 -10 20 -10 36 0 22 -7 32 -25 41 -14 6 -25 17 -25 23 0 17
-25 36 -52 40 -13 1 -34 5 -48 9 -14 3 -32 2 -40 -4z m40 -60 c0 -5 11 -10 25
-10 14 0 28 -7 31 -15 4 -8 12 -15 20 -15 9 0 14 -11 14 -29 0 -17 4 -32 9
-35 12 -8 -9 -65 -31 -88 -10 -10 -18 -22 -18 -28 0 -5 -11 -10 -24 -10 -14 0
-28 -5 -32 -11 -4 -8 -9 -8 -17 0 -6 6 -19 11 -29 11 -22 0 -67 48 -68 71 0 8
-5 20 -12 27 -9 9 -9 15 0 24 7 7 12 23 12 36 0 15 7 26 20 29 11 3 20 12 20
19 0 8 10 14 24 14 14 0 28 5 31 10 3 6 10 10 16 10 5 0 9 -4 9 -10z m-320
-100 l0 -80 -28 0 c-16 0 -51 -7 -78 -15 -27 -9 -63 -20 -80 -25 -25 -8 -41
-6 -85 14 -85 38 -226 52 -368 36 -109 -11 -225 -38 -281 -65 -59 -27 -113
-58 -133 -73 -42 -33 -102 -94 -119 -120 -18 -27 -18 -26 -18 78 0 58 4 111 9
118 4 8 37 17 72 22 65 8 114 16 294 50 55 11 145 27 200 35 55 9 134 23 175
30 41 8 91 16 110 18 34 4 182 31 250 47 81 18 80 19 80 -70z m184 -145 c20
-19 45 -35 57 -35 13 0 31 -7 41 -17 16 -14 22 -14 46 -3 15 8 38 15 51 16 13
2 27 8 31 14 4 6 16 -1 31 -17 84 -92 99 -201 44 -321 -19 -41 -22 -58 -15
-73 6 -10 14 -19 18 -19 4 0 21 -12 38 -27 17 -16 48 -43 70 -62 68 -59 74
-74 74 -188 0 -102 0 -103 -24 -103 -29 0 -36 16 -36 88 0 31 -3 74 -6 94 -6
36 -10 39 -63 54 -134 39 -158 49 -188 73 -18 14 -33 32 -33 40 0 8 12 39 27
70 16 33 28 80 31 114 l5 59 -29 -4 c-28 -3 -29 -6 -34 -63 -5 -58 -47 -159
-74 -178 -8 -5 -6 -11 6 -20 24 -19 127 -108 158 -137 39 -37 49 -69 51 -168
1 -85 -3 -112 -19 -112 -23 1 -32 26 -42 120 l-12 106 -77 23 c-42 12 -101 29
-131 37 -30 8 -82 24 -115 34 -33 11 -69 20 -80 21 -23 0 -62 26 -132 85 l-48
41 -75 -29 c-41 -16 -106 -43 -145 -60 -138 -60 -195 -70 -258 -43 -87 36
-104 142 -30 191 32 20 39 12 18 -20 -34 -51 -12 -136 36 -136 15 0 16 4 6 29
-9 25 -6 38 21 93 17 34 45 78 62 96 16 18 30 36 30 40 0 3 40 45 89 93 139
136 222 175 496 232 63 14 94 7 129 -28z m-546 -11 c22 -6 31 -24 11 -24 -10
0 -29 -13 -86 -60 -7 -6 -15 -10 -18 -10 -3 0 -16 -12 -28 -26 -22 -25 -23
-25 -92 -14 -81 13 -205 5 -232 -15 -10 -8 -23 -15 -30 -15 -29 0 -153 -105
-153 -129 0 -6 -4 -11 -8 -11 -9 0 -28 -46 -48 -115 -51 -181 48 -382 229
-468 41 -19 98 -37 132 -42 32 -4 68 -9 80 -11 35 -7 177 16 240 38 116 42
226 126 287 219 20 32 35 45 46 42 15 -3 17 -19 14 -123 l-3 -120 -37 -9 c-41
-10 -100 -22 -242 -46 -52 -9 -140 -24 -195 -35 -55 -10 -145 -26 -200 -35
-55 -9 -126 -21 -157 -27 -86 -16 -130 7 -270 141 l-58 54 0 244 c0 134 4 251
9 261 4 9 17 35 27 57 10 22 24 44 31 48 7 4 13 12 13 17 0 11 68 80 79 80 4
0 15 8 24 18 27 29 143 80 242 105 61 15 346 23 393 11z m-210 -218 c7 -4 -1
-19 -19 -38 -16 -18 -29 -36 -29 -40 0 -5 -14 -8 -30 -8 -43 0 -104 -34 -135
-75 -22 -28 -27 -46 -28 -92 0 -34 6 -70 16 -88 32 -62 101 -105 168 -105 29
0 142 27 168 40 29 15 135 58 200 81 47 17 66 20 69 11 2 -7 8 -12 12 -12 5 0
21 -11 35 -24 35 -33 29 -51 -48 -129 -69 -69 -133 -109 -221 -138 -78 -25
-238 -26 -316 -1 -64 20 -170 87 -170 108 0 8 -4 14 -10 14 -14 0 -48 70 -64
132 -50 193 119 387 325 375 37 -2 71 -7 77 -11z m-510 -821 l52 -40 -27 -6
c-16 -4 -52 -9 -80 -12 l-53 -6 0 82 0 81 28 -29 c16 -17 52 -48 80 -70z
m1165 68 c18 -9 46 -20 62 -24 38 -9 90 -27 135 -47 19 -8 49 -18 65 -22 34
-9 79 -25 145 -50 63 -24 110 -40 145 -50 45 -12 95 -30 143 -51 23 -11 50
-19 60 -19 9 -1 28 -7 42 -15 29 -16 28 -16 -66 -40 -34 -8 -75 -15 -90 -15
-16 0 -60 -6 -99 -14 -64 -13 -182 -34 -400 -71 -44 -8 -129 -23 -190 -34
-258 -46 -226 -46 -355 0 -63 22 -128 44 -145 49 -16 5 -61 21 -100 35 -38 15
-83 30 -100 35 -16 5 -61 21 -100 35 -38 15 -83 30 -100 35 -16 5 -61 21 -100
35 -38 15 -82 29 -98 32 -45 9 -40 21 10 28 27 3 93 14 148 25 55 10 145 26
200 35 55 8 145 24 200 35 55 10 145 26 200 35 55 9 138 24 185 34 109 24 163
25 203 4z"/>
<path d="M1315 654 c-14 -15 -14 -19 -2 -31 10 -10 20 -11 40 -4 30 12 36 36
11 45 -24 9 -31 8 -49 -10z"/>
<path d="M1235 653 c-35 -9 -47 -46 -19 -57 8 -3 27 -3 40 0 20 5 24 12 22 32
-3 27 -12 32 -43 25z"/>
<path d="M1133 632 c-24 -4 -32 -35 -12 -47 19 -12 59 4 59 24 0 21 -15 29
-47 23z"/>
<path d="M1473 622 c-43 -7 -39 -65 5 -60 34 4 52 33 32 51 -8 7 -25 11 -37 9z"/>
<path d="M1011 601 c-13 -24 8 -44 41 -39 17 2 24 11 26 31 3 24 0 27 -27 27
-20 0 -34 -7 -40 -19z"/>
<path d="M923 593 c-7 -2 -13 -13 -13 -23 0 -10 6 -20 13 -23 19 -6 67 13 67
28 0 20 -37 31 -67 18z"/>
<path d="M1351 591 c-20 -13 -6 -41 21 -41 32 0 52 15 45 34 -7 17 -43 21 -66
7z"/>
<path d="M838 583 c-40 -10 -30 -66 11 -61 21 2 26 8 26 32 0 30 -8 37 -37 29z"/>
<path d="M1263 584 c-7 -3 -13 -16 -13 -29 0 -27 17 -36 48 -24 17 6 22 15 20
31 -3 23 -29 33 -55 22z"/>
<path d="M738 562 c-29 -3 -40 -34 -18 -47 20 -12 70 6 70 25 0 21 -14 27 -52
22z"/>
<path d="M1168 563 c-45 -12 -19 -59 27 -47 19 5 25 12 23 28 -3 21 -19 28
-50 19z"/>
<path d="M644 550 c-28 -11 -36 -24 -28 -44 9 -23 51 -20 65 5 15 29 -7 51
-37 39z"/>
<path d="M1077 552 c-24 -3 -28 -7 -25 -30 4 -36 51 -44 68 -11 15 28 -4 46
-43 41z"/>
<path d="M1583 544 c-9 -23 22 -45 50 -35 12 5 22 17 22 27 0 26 -62 33 -72 8z"/>
<path d="M1496 537 c-30 -22 -14 -49 26 -45 28 2 33 7 33 28 0 30 -30 38 -59
17z"/>
<path d="M528 523 c-23 -6 -23 -29 -1 -41 22 -13 65 6 61 27 -3 16 -30 23 -60
14z"/>
<path d="M954 515 c-8 -21 4 -35 31 -35 24 0 51 31 38 44 -12 12 -64 6 -69 -9z"/>
<path d="M1413 523 c-25 -5 -35 -24 -23 -44 13 -20 65 0 65 25 0 21 -9 25 -42
19z"/>
<path d="M862 511 c-22 -14 -10 -46 19 -49 29 -3 54 20 45 43 -6 16 -43 20
-64 6z"/>
<path d="M1309 506 c-37 -18 -30 -40 14 -44 33 -3 37 -1 37 21 0 30 -19 39
-51 23z"/>
<path d="M760 485 c-17 -20 -4 -35 30 -35 32 0 43 11 34 34 -8 20 -48 21 -64
1z"/>
<path d="M668 479 c-40 -23 -5 -70 37 -51 28 13 33 47 9 56 -21 8 -26 7 -46
-5z"/>
<path d="M1190 464 c0 -23 3 -25 33 -22 24 2 33 8 35 26 3 19 -1 22 -32 22
-32 0 -36 -3 -36 -26z"/>
<path d="M1101 466 c-20 -24 -6 -46 29 -46 28 0 31 3 28 28 -4 32 -37 42 -57
18z"/>
<path d="M1525 464 c-16 -2 -78 -14 -137 -26 l-108 -22 0 -31 c0 -30 3 -32 93
-65 119 -43 162 -46 270 -21 48 12 102 21 120 21 43 0 71 21 63 46 -4 13 -26
25 -68 39 -35 10 -81 27 -103 36 -48 20 -89 27 -130 23z m172 -98 c3 -2 -17
-7 -44 -11 -26 -3 -69 -10 -94 -15 -39 -8 -57 -5 -114 16 -38 13 -71 26 -73
29 -3 3 15 5 39 5 24 1 68 7 98 14 50 11 60 10 119 -10 35 -13 66 -25 69 -28z"/>
<path d="M992 433 c4 -33 33 -42 62 -20 30 22 14 47 -29 47 -34 0 -36 -2 -33
-27z"/>
<path d="M925 443 c-46 -12 -47 -53 -1 -53 19 0 36 6 39 13 5 15 -3 47 -12 46
-3 -1 -15 -4 -26 -6z"/>
<path d="M792 398 c5 -40 78 -32 78 8 0 10 -13 14 -41 14 -36 0 -40 -2 -37
-22z"/>
<path d="M3060 1280 c0 -5 14 -10 30 -10 l30 0 0 -285 0 -285 -30 0 c-20 0
-30 -5 -30 -15 0 -11 11 -15 40 -15 39 0 40 1 40 35 l0 36 36 -35 c63 -61 129
-59 194 4 85 83 55 234 -54 270 -54 18 -104 5 -143 -37 l-33 -34 0 190 0 191
-40 0 c-22 0 -40 -4 -40 -10z m265 -326 c34 -16 75 -83 75 -122 0 -31 -21 -86
-43 -109 -24 -27 -91 -39 -130 -24 -66 25 -100 101 -77 171 28 83 102 119 175
84z"/>
<path d="M3480 1280 c0 -5 14 -10 30 -10 l30 0 0 -285 0 -285 -30 0 c-20 0
-30 -5 -30 -15 0 -11 11 -15 40 -15 40 0 40 0 40 38 0 37 1 37 18 15 26 -32
83 -63 118 -63 38 0 107 48 129 89 41 81 4 192 -78 229 -55 24 -129 4 -166
-45 l-20 -28 -1 193 0 192 -40 0 c-22 0 -40 -4 -40 -10z m270 -327 c39 -27 58
-55 65 -94 13 -75 -26 -149 -88 -164 -145 -36 -226 157 -103 246 45 33 90 37
126 12z"/>
<path d="M5270 1280 c0 -5 14 -10 30 -10 l30 0 0 -285 0 -285 -30 0 c-20 0
-30 -5 -30 -15 0 -12 15 -15 75 -15 60 0 75 3 75 15 0 10 -11 15 -35 15 l-35
0 0 295 0 295 -40 0 c-22 0 -40 -4 -40 -10z"/>
<path d="M2190 1236 c0 -11 9 -16 30 -16 l30 0 0 -260 0 -260 -30 0 c-20 0
-30 -5 -30 -15 0 -12 15 -15 75 -15 60 0 75 3 75 15 0 10 -11 15 -35 15 l-35
0 0 120 0 120 60 0 c40 0 60 -4 60 -12 0 -7 17 -48 38 -93 22 -44 48 -99 58
-122 18 -41 21 -43 62 -43 31 0 42 4 42 15 0 11 -11 15 -37 15 -37 0 -39 2
-76 80 -21 43 -43 94 -49 112 -6 18 -14 38 -19 43 -5 7 5 16 24 25 37 16 52
32 72 79 30 67 8 135 -57 178 -38 26 -51 28 -150 31 -93 3 -108 2 -108 -12z
m253 -42 c38 -27 60 -79 53 -119 -4 -19 -22 -50 -41 -70 -34 -34 -37 -35 -110
-35 l-75 0 0 126 0 127 74 -5 c50 -3 81 -11 99 -24z"/>
<path d="M4350 1235 c0 -10 10 -15 30 -15 l30 0 0 -260 0 -260 -30 0 c-20 0
-30 -5 -30 -15 0 -12 14 -15 70 -15 56 0 70 3 70 15 0 10 -10 15 -30 15 l-30
0 0 125 0 125 175 0 175 0 0 -125 0 -125 -35 0 c-24 0 -35 -5 -35 -15 0 -12
15 -15 75 -15 60 0 75 3 75 15 0 10 -10 15 -30 15 l-30 0 0 260 0 260 30 0
c20 0 30 5 30 15 0 12 -15 15 -75 15 -60 0 -75 -3 -75 -15 0 -10 11 -15 35
-15 l35 0 0 -125 0 -125 -175 0 -175 0 0 125 0 125 30 0 c20 0 30 5 30 15 0
12 -14 15 -70 15 -56 0 -70 -3 -70 -15z"/>
<path d="M4170 1080 l0 -100 -35 0 c-19 0 -35 -4 -35 -10 0 -5 16 -10 35 -10
l35 0 0 -145 0 -145 45 0 c33 0 45 4 45 15 0 10 -11 15 -35 15 l-35 0 0 130 0
130 50 0 c28 0 50 5 50 10 0 6 -22 10 -50 10 l-50 0 0 100 c0 60 -4 100 -10
100 -6 0 -10 -40 -10 -100z"/>
<path d="M3950 1089 c0 -14 5 -19 17 -17 26 5 29 38 4 38 -15 0 -21 -6 -21
-21z"/>
<path d="M2736 978 c-82 -30 -123 -146 -81 -228 20 -39 76 -80 118 -87 42 -7
111 28 133 67 13 24 13 24 14 -17 l0 -43 40 0 c29 0 40 4 40 15 0 10 -10 15
-30 15 l-30 0 0 140 c0 87 -4 140 -10 140 -5 0 -10 -19 -10 -42 l0 -43 -20 32
c-20 33 -76 64 -114 62 -11 0 -34 -5 -50 -11z m128 -42 c44 -33 63 -98 46
-153 -16 -47 -41 -72 -86 -85 -73 -20 -136 15 -155 85 -36 136 89 234 195 153z"/>
<path d="M5016 978 c-82 -30 -123 -146 -81 -228 21 -41 78 -81 123 -87 108
-15 204 120 160 224 -35 83 -120 121 -202 91z m114 -28 c41 -21 80 -80 80
-121 0 -29 -30 -90 -55 -111 -30 -26 -95 -32 -137 -15 -51 22 -73 59 -73 126
0 63 19 96 69 123 42 22 69 22 116 -2z"/>
<path d="M5574 975 c-40 -18 -80 -66 -89 -106 -10 -46 3 -114 28 -142 30 -34
87 -67 116 -67 39 0 111 39 104 56 -5 13 -8 12 -25 -3 -14 -13 -36 -18 -78
-18 -48 0 -63 5 -84 24 -35 33 -33 56 7 71 37 14 72 29 140 59 26 11 54 21 62
21 19 0 18 7 -4 44 -37 63 -114 90 -177 61z m109 -22 c19 -10 38 -28 44 -40 9
-19 7 -23 -21 -33 -17 -7 -49 -20 -71 -30 -109 -50 -126 -54 -136 -39 -18 28
21 103 71 136 40 28 68 29 113 6z"/>
<path d="M3900 970 c0 -5 14 -10 30 -10 l30 0 0 -130 0 -130 -30 0 c-20 0 -30
-5 -30 -15 0 -12 14 -15 70 -15 56 0 70 3 70 15 0 10 -10 15 -30 15 l-30 0 0
140 0 140 -40 0 c-22 0 -40 -4 -40 -10z"/>
</g>
</svg>
