<?xml version="1.0" standalone="no"?>
<!DOCTYPE svg PUBLIC "-//W3C//DTD SVG 20010904//EN"
 "http://www.w3.org/TR/2001/REC-SVG-20010904/DTD/svg10.dtd">
<svg version="1.0" xmlns="http://www.w3.org/2000/svg"
 width="586.000000pt" height="495.000000pt" viewBox="0 0 586.000000 495.000000"
 preserveAspectRatio="xMidYMid meet">

<g transform="translate(0.000000,495.000000) scale(0.100000,-0.100000)"
fill="#000000" stroke="none">
<path d="M3837 4040 c-17 -13 -40 -20 -70 -20 -37 0 -49 -5 -66 -26 -11 -14
-23 -34 -26 -45 -4 -10 -13 -19 -21 -19 -9 0 -29 -14 -46 -30 -26 -27 -30 -36
-25 -70 3 -26 1 -43 -8 -50 -8 -7 -19 -27 -25 -46 -10 -29 -9 -39 5 -60 9 -14
14 -28 11 -32 -3 -3 -42 -7 -86 -10 l-80 -5 0 150 0 149 -33 32 c-24 23 -42
32 -67 32 -26 0 -1115 -178 -1315 -215 -16 -3 -142 -23 -280 -45 -137 -22
-272 -45 -300 -50 -27 -6 -133 -24 -235 -40 -283 -46 -303 -54 -327 -121 -9
-25 -12 -305 -12 -1119 -1 -1034 0 -1087 18 -1125 10 -22 29 -50 42 -61 15
-14 301 -113 789 -274 421 -139 859 -283 974 -322 207 -68 210 -69 270 -59 72
12 184 32 351 61 66 12 158 28 205 36 47 8 126 21 175 29 50 8 101 17 115 21
14 3 61 12 105 19 44 8 175 30 290 50 412 71 496 86 660 115 66 12 147 26 180
31 33 5 105 17 160 27 94 17 101 20 122 52 27 39 31 105 8 137 -12 17 -225 91
-955 333 l-940 312 0 234 c0 164 3 234 11 234 10 0 237 -59 364 -94 28 -8 80
-22 117 -31 l66 -18 6 -96 c15 -254 60 -341 175 -341 58 0 87 14 120 60 38 52
43 98 33 291 -7 139 -10 161 -34 209 -15 30 -26 55 -25 56 3 3 118 -24 122
-28 2 -2 9 -53 15 -113 17 -172 28 -225 52 -260 31 -46 68 -65 123 -65 56 0
92 20 125 68 25 35 25 39 23 232 -2 258 -14 289 -166 417 -45 37 -112 94 -149
126 l-67 57 23 43 c48 87 60 144 61 277 0 105 -4 136 -23 191 -30 86 -81 172
-139 231 -44 45 -45 48 -34 76 7 17 11 41 10 54 -2 13 7 40 19 59 28 46 28 79
0 114 -15 20 -21 39 -19 67 1 31 -4 44 -28 68 -16 17 -37 30 -45 30 -9 0 -16
6 -16 14 0 8 -12 28 -26 45 -22 26 -33 31 -71 31 -30 0 -53 7 -70 20 -14 11
-40 20 -58 20 -18 0 -44 -9 -58 -20z m79 -105 c10 -8 35 -15 56 -15 31 0 39
-5 57 -35 11 -19 32 -40 46 -45 20 -8 25 -16 25 -46 0 -21 7 -46 17 -56 17
-19 17 -21 0 -50 -9 -16 -17 -44 -17 -62 0 -26 -6 -35 -34 -50 -20 -11 -39
-31 -45 -47 -8 -25 -15 -29 -46 -29 -20 0 -47 -7 -60 -16 -22 -14 -26 -14 -47
0 -12 9 -38 16 -58 16 -28 0 -38 6 -52 30 -9 16 -29 38 -45 47 -22 14 -27 24
-25 46 2 15 -5 39 -16 55 -20 27 -20 28 -1 52 10 14 19 41 19 60 0 28 6 38 31
53 17 9 36 31 42 47 10 26 17 30 47 30 20 0 45 7 56 15 24 18 26 18 50 0z
m-618 -186 l-3 -142 -105 -23 c-98 -22 -132 -32 -257 -71 -52 -17 -52 -17
-109 11 -146 72 -296 98 -549 98 -405 1 -745 -88 -1000 -260 -85 -58 -199
-163 -242 -224 -14 -21 -30 -38 -34 -38 -5 0 -9 88 -9 195 0 223 -2 217 95
230 28 3 86 13 130 20 123 22 442 75 515 86 36 5 88 14 115 19 60 12 393 67
485 81 36 5 88 14 115 19 52 11 531 90 695 116 52 8 100 16 105 18 6 3 20 5
33 5 l23 1 -3 -141z m319 -239 c14 -11 31 -20 38 -20 7 0 18 -13 25 -29 19
-46 45 -64 92 -64 27 0 52 -7 67 -18 30 -24 79 -24 111 -1 16 10 44 17 73 17
40 0 53 5 68 24 l20 24 40 -39 c51 -50 91 -113 121 -189 19 -50 23 -79 23
-175 0 -139 -13 -182 -93 -303 -22 -32 -23 -40 -11 -51 8 -7 86 -73 174 -146
230 -191 222 -178 231 -403 6 -146 5 -169 -10 -191 -18 -29 -56 -35 -75 -12
-14 16 -23 79 -42 272 l-12 131 -146 37 c-246 64 -250 66 -326 129 -38 32 -71
62 -73 67 -2 5 8 26 21 47 65 103 110 266 98 355 -5 35 -11 44 -33 52 -46 16
-66 -12 -66 -92 0 -65 -17 -124 -60 -212 -23 -47 -85 -144 -94 -148 -16 -7 -7
-27 19 -46 47 -35 317 -263 340 -288 43 -46 53 -98 53 -277 0 -177 -4 -191
-47 -191 -39 0 -54 39 -68 182 -8 73 -15 156 -17 183 -3 56 9 48 -148 90 -36
9 -87 23 -115 31 -27 7 -111 29 -185 49 -325 84 -377 99 -420 121 -38 19 -81
51 -234 177 -21 17 -27 17 -77 4 -47 -13 -259 -91 -314 -117 -48 -22 -304
-119 -340 -129 -94 -26 -220 -4 -294 49 -95 69 -110 205 -32 294 19 21 91 60
98 52 3 -3 -8 -29 -25 -59 -40 -70 -48 -114 -29 -159 18 -43 74 -88 110 -88
33 0 34 11 6 28 -19 12 -21 20 -16 62 13 113 177 341 393 551 172 165 312 254
504 319 211 71 436 117 578 119 60 1 79 -3 99 -19z m-1029 -60 c28 -7 52 -17
52 -21 0 -5 -15 -16 -32 -25 -54 -28 -149 -94 -230 -160 l-77 -64 -78 20
c-203 52 -372 33 -578 -66 -123 -58 -247 -177 -312 -299 -80 -151 -105 -346
-64 -504 36 -140 95 -243 199 -348 173 -176 412 -265 712 -265 268 0 489 67
706 214 121 82 279 252 310 333 5 12 14 14 38 9 17 -3 34 -12 38 -18 4 -6 8
-108 8 -227 l0 -216 -82 -16 c-111 -21 -448 -78 -903 -153 -49 -8 -128 -21
-175 -29 -47 -8 -168 -28 -270 -44 -102 -17 -207 -35 -233 -41 -89 -19 -111
-14 -205 44 -111 69 -287 210 -346 278 l-46 53 0 448 0 449 44 91 c152 317
464 500 971 571 70 10 502 -1 553 -14z m-404 -399 l29 -12 -30 -32 c-16 -18
-44 -51 -62 -74 -28 -37 -38 -43 -69 -43 -160 -1 -312 -129 -335 -284 -14 -89
26 -197 101 -272 90 -91 209 -123 362 -99 91 15 129 28 475 160 198 75 285 99
285 77 0 -6 29 -32 65 -59 36 -26 65 -54 65 -61 0 -37 -125 -186 -220 -263
-115 -93 -320 -183 -477 -210 -86 -15 -277 -15 -366 0 -95 16 -236 65 -309
108 -74 43 -171 140 -216 215 -128 214 -102 488 62 665 85 92 183 150 318 188
63 18 276 15 322 -4z m-1024 -1483 c52 -41 105 -81 118 -87 35 -19 26 -28 -35
-36 -32 -4 -87 -13 -123 -21 -36 -7 -80 -14 -97 -14 l-33 0 0 152 0 152 38
-35 c20 -20 80 -69 132 -111z m3015 -149 c451 -149 843 -279 870 -289 l50 -18
-40 -9 c-22 -6 -146 -27 -275 -48 -129 -20 -269 -43 -310 -51 -153 -28 -1418
-237 -1490 -247 -86 -11 -7 -33 -690 193 -212 70 -545 180 -740 245 -195 64
-362 121 -370 125 -11 7 -9 10 10 14 56 11 2127 354 2145 355 11 1 389 -121
840 -270z"/>
<path d="M3213 1630 c-43 -10 -63 -27 -63 -55 0 -31 24 -48 67 -47 44 2 83 26
83 52 0 20 -33 61 -47 59 -5 -1 -23 -5 -40 -9z"/>
<path d="M3010 1597 c-41 -13 -50 -23 -50 -58 0 -36 38 -53 91 -39 63 17 77
80 22 101 -13 5 -25 9 -26 8 -1 -1 -18 -6 -37 -12z"/>
<path d="M2792 1554 c-44 -31 -19 -88 38 -86 72 2 103 35 75 78 -19 29 -77 33
-113 8z"/>
<path d="M2595 1515 c-30 -29 -31 -39 -4 -66 17 -17 28 -19 62 -14 70 12 98
53 59 88 -28 26 -88 22 -117 -8z"/>
<path d="M3442 1524 c-25 -17 -29 -56 -7 -74 20 -16 114 -8 126 11 12 20 11
53 -3 67 -17 17 -89 15 -116 -4z"/>
<path d="M2421 1497 c-39 -20 -47 -41 -27 -72 17 -25 22 -27 64 -21 47 6 82
29 82 53 0 22 -39 53 -67 53 -16 0 -39 -6 -52 -13z"/>
<path d="M3252 1494 c-25 -17 -29 -56 -8 -73 8 -7 36 -11 62 -9 40 2 51 7 63
30 14 24 14 28 -3 47 -23 25 -81 28 -114 5z"/>
<path d="M3070 1467 c-19 -10 -25 -20 -25 -47 0 -44 30 -57 92 -41 47 13 63
43 43 80 -13 25 -69 29 -110 8z"/>
<path d="M2223 1460 c-16 -7 -23 -18 -23 -38 0 -39 17 -52 65 -52 64 0 97 38
69 79 -16 23 -69 28 -111 11z"/>
<path d="M2090 1443 c-77 -10 -98 -31 -80 -79 10 -25 13 -26 66 -22 33 3 60
11 65 19 25 40 -5 88 -51 82z"/>
<path d="M2897 1443 c-15 -2 -35 -15 -43 -29 -15 -22 -15 -26 1 -50 16 -25 21
-26 69 -20 71 8 99 52 58 89 -18 17 -30 18 -85 10z"/>
<path d="M3723 1425 c-58 -25 -36 -95 28 -95 71 0 113 54 73 94 -19 20 -58 20
-101 1z"/>
<path d="M1872 1408 c-50 -11 -72 -42 -53 -77 20 -36 121 -27 139 13 21 47
-21 77 -86 64z"/>
<path d="M2717 1413 c-43 -5 -72 -38 -60 -69 10 -27 23 -34 71 -34 68 0 106
55 64 93 -10 10 -23 16 -28 15 -5 -1 -26 -3 -47 -5z"/>
<path d="M3561 1400 c-46 -11 -65 -32 -57 -63 7 -30 35 -41 82 -33 36 7 64 29
64 52 0 15 -35 55 -47 53 -5 -1 -23 -5 -42 -9z"/>
<path d="M1650 1367 c-35 -18 -35 -66 1 -86 22 -12 31 -12 70 0 37 12 45 19
47 42 2 16 -2 35 -9 43 -14 17 -75 18 -109 1z"/>
<path d="M2486 1364 c-19 -18 -21 -55 -4 -72 20 -20 95 -15 118 8 23 23 24 33
10 61 -14 25 -100 27 -124 3z"/>
<path d="M3373 1370 c-43 -10 -63 -27 -63 -54 0 -31 19 -46 56 -46 79 0 114
42 73 86 -12 13 -25 24 -28 23 -3 -1 -21 -5 -38 -9z"/>
<path d="M2307 1343 c-21 -5 -39 -46 -30 -69 9 -25 50 -36 94 -24 47 13 66 42
50 76 -9 20 -17 24 -53 23 -24 -1 -51 -3 -61 -6z"/>
<path d="M3142 1324 c-25 -17 -29 -56 -7 -74 20 -16 114 -8 126 11 12 20 11
53 -3 67 -17 17 -89 15 -116 -4z"/>
<path d="M2113 1310 c-24 -10 -37 -39 -27 -64 10 -25 46 -36 89 -26 52 12 67
39 45 81 -12 21 -66 25 -107 9z"/>
<path d="M2945 1286 c-28 -28 -24 -63 9 -75 37 -14 96 -1 113 25 40 61 -67
105 -122 50z"/>
<path d="M1940 1283 c-26 -10 -50 -35 -50 -53 0 -33 36 -53 82 -46 53 9 68 21
68 57 0 41 -48 61 -100 42z"/>
<path d="M2773 1270 c-35 -14 -47 -47 -28 -76 8 -13 24 -24 34 -24 44 0 83 15
98 36 14 22 14 26 -1 49 -17 27 -59 33 -103 15z"/>
<path d="M3383 1217 c-170 -29 -249 -47 -263 -59 -24 -22 -27 -74 -4 -99 9
-10 107 -48 218 -85 l201 -68 120 19 c66 9 154 23 195 30 41 7 122 20 178 29
57 9 112 21 122 26 43 23 33 79 -17 98 -101 40 -457 152 -480 151 -15 0 -137
-19 -270 -42z m428 -107 c63 -21 107 -40 99 -43 -15 -4 -223 -41 -308 -53 -34
-5 -67 2 -172 37 -71 24 -127 46 -122 50 4 3 48 12 97 19 50 6 126 18 170 25
93 14 88 15 236 -35z"/>
<path d="M2597 1243 c-15 -2 -35 -15 -43 -29 -15 -22 -15 -26 1 -50 16 -24 21
-26 67 -21 71 9 101 53 60 90 -18 17 -30 18 -85 10z"/>
<path d="M2417 1213 c-48 -5 -76 -41 -59 -78 22 -49 152 -25 152 28 0 19 -30
57 -43 55 -7 -1 -29 -3 -50 -5z"/>
<path d="M2179 1161 c-20 -16 -22 -23 -13 -47 9 -27 13 -29 67 -29 61 1 77 11
77 51 0 11 -5 25 -12 32 -19 19 -92 15 -119 -7z"/>
</g>
</svg>
